<svg xmlns="http://www.w3.org/2000/svg" width="1080" height="1080" viewBox="0 0 1080 1080" fill="none"><path d="M1035 1065H53C46.4 1065 41 1059.6 41 1053V1006C41 999.4 46.4 994 53 994H1035C1041.6 994 1047 999.4 1047 1006V1053C1047 1059.6 1041.6 1065 1035 1065Z" fill="#F7F7F7"></path><path d="M552 1011C736.463 1011 886 861.463 886 677C886 492.537 736.463 343 552 343C367.537 343 218 492.537 218 677C218 861.463 367.537 1011 552 1011Z" fill="#F3FAFF"></path><path d="M966 912.9C973.1 894.8 980.3 874.7 973.6 856.5C972 852.1 969.5 847.4 971 842.9C973 836.8 981 834.7 983.6 828.9C986.6 822.5 981.9 815.1 983.1 808.2C984.3 801.2 991.2 796.6 997.9 794.1C1004.6 791.6 1011.9 790 1017.3 785.4C1027.6 776.4 1026.4 760.3 1024.1 746.7C1021.8 733.2 1020.1 717.2 1030 707.7C1011.8 711.2 993.2 714.8 977.4 724.4C961.6 734 949 751 949.9 769.5C950.4 778.8 954 788.7 949.8 796.9C945.2 805.8 932.9 809.3 929.8 818.8C926.2 829.7 936.9 839.7 941.1 850.4C945.1 860.5 943.2 871.8 944.1 882.5C945 893.3 950.6 905.5 961.3 907.1L966 912.9Z" fill="#FFBE55"></path><path opacity="0.31" d="M966 912.9C973.1 894.8 980.3 874.7 973.6 856.5C972 852.1 969.5 847.4 971 842.9C973 836.8 981 834.7 983.6 828.9C986.6 822.5 981.9 815.1 983.1 808.2C984.3 801.2 991.2 796.6 997.9 794.1C1004.6 791.6 1011.9 790 1017.3 785.4C1027.6 776.4 1026.4 760.3 1024.1 746.7C1021.8 733.2 1020.1 717.2 1030 707.7C1011.8 711.2 993.2 714.8 977.4 724.4C961.6 734 949 751 949.9 769.5C950.4 778.8 954 788.7 949.8 796.9C945.2 805.8 932.9 809.3 929.8 818.8C926.2 829.7 936.9 839.7 941.1 850.4C945.1 860.5 943.2 871.8 944.1 882.5C945 893.3 950.6 905.5 961.3 907.1L966 912.9Z" fill="white"></path><path d="M958.7 889.2C958.5 836.6 968.7 726.5 1029.4 708.1" stroke="white" stroke-width="0.75" stroke-miterlimit="10" stroke-linecap="round"></path><path d="M923.7 908.5C912.9 888.3 901.7 865.8 907 843.5C908.3 838.1 910.5 832.3 908.2 827.2C905.1 820.4 895.4 818.9 891.5 812.5C887.2 805.5 891.6 796.1 889.2 788.2C886.8 780.1 878.1 775.8 870 773.7C861.9 771.7 853.1 770.9 846.1 766.1C832.8 757 832 737.9 832.8 721.8C833.6 705.7 833.4 686.7 820.5 677C842.3 678.6 864.6 680.3 884.4 689.4C904.2 698.5 921.4 716.7 922.8 738.5C923.5 749.4 920.6 761.5 926.7 770.6C933.3 780.4 948.2 782.8 953.2 793.5C958.9 805.8 947.8 818.9 944.3 832C941.1 844.3 944.8 857.3 945.2 870C945.6 882.7 940.7 897.8 928.4 901.2L923.7 908.5Z" fill="#FFBE55"></path><path d="M929 879.7C922 818 895 690.5 821.3 677.4" stroke="white" stroke-width="0.75" stroke-miterlimit="10" stroke-linecap="round"></path><path d="M992 1027H897C890.4 1027 885 1021.6 885 1015L877 878C877 871.4 882.4 866 889 866H1000C1006.6 866 1012 871.4 1012 878L1004 1015C1004 1021.6 998.6 1027 992 1027Z" fill="#CCE9FF"></path><path d="M191.845 582.609L130.545 591.904L172.222 866.762L233.521 857.467L191.845 582.609Z" fill="#FFBE55"></path><path d="M191.823 582.635L161.174 587.283L202.85 862.141L233.5 857.494L191.823 582.635Z" fill="#FFBE55"></path><path d="M191.9 582.9L130.6 592.2L145 555.3L153.2 534.5L167.2 552L191.9 582.9Z" fill="#FFEBC2"></path><path d="M167.2 552L145 555.3L153.2 534.5L167.2 552Z" fill="#0E538C"></path><path d="M302.867 525.211L241.115 519.681L216.321 796.569L278.073 802.099L302.867 525.211Z" fill="#FFBE55"></path><path d="M302.926 525.233L272.05 522.469L247.256 799.357L278.132 802.121L302.926 525.233Z" fill="#FFBE55"></path><path d="M302.9 525.5L241.1 520L263.9 487.6L276.8 469.3L286.2 489.6L302.9 525.5Z" fill="#FFEBC2"></path><path d="M286.2 489.6L263.9 487.6L276.8 469.3L286.2 489.6Z" fill="#0E538C"></path><path d="M343.5 1028H99.9L68 651H363L343.5 1028Z" fill="#CCE9FF"></path><path opacity="0.5" d="M215.5 1028H343.5L363 651H215.5V1028Z" fill="#CCE9FF"></path><path d="M888 921.6H269V1006.7H888V921.6Z" fill="#FFEBC2"></path><path d="M271.6 921.6V1006.7H921V1013.1C921 1021 914.1 1027.4 905.6 1027.4H274.4C254.3 1027.4 238 1012.4 238 993.8V936.9C238 918.3 254.3 903.3 274.4 903.3H905.6C914.1 903.3 921 909.7 921 917.6V921.7H271.6V921.6Z" fill="#FFBE55"></path><path d="M888 959.5H269V1006.6H888V959.5Z" fill="#FFEBC2"></path><path d="M852 818H349V892H852V818Z" fill="#CCE9FF"></path><path d="M349 818V892H871V897.6C871 904.5 865.4 910 858.6 910H351.2C335.1 910 322 896.9 322 880.8V831.3C322 815.2 335.1 802.1 351.2 802.1H858.6C865.4 802.1 871 807.7 871 814.5V818.1H349V818Z" fill="#2A94F4"></path><path d="M566.4 566.1C559.5 557 558.9 544.5 565.4 535C570.6 527.4 574.1 518 573.7 511.1C572.9 498.7 565.2 487.3 554.7 480.5C540.9 471.5 522.5 470.2 507.6 477.2C492.7 484.2 481.9 499.2 480 515.5C478.6 527.2 481.3 540 475.3 550.2C470.9 557.5 462.8 561.8 454.8 564.7C446.7 567.5 438.2 569.4 430.8 573.7C423.4 578 417.1 585.4 417.2 594C417.3 600.5 421 606.5 421.4 612.9C422 622.3 415.4 630.6 408.4 636.8C401.3 643 393.2 648.4 388.4 656.5C380.5 669.9 384.2 688 394.2 700C404.2 712 419.2 718.7 434.2 722.6C475.2 733.4 518.4 726.4 560.7 725.7C573.8 725.5 587.2 725.9 599.9 722.6C612.6 719.3 625 711.7 630.3 699.7C635.7 687.7 633 673.1 625.8 662.2C618.6 651.3 607.3 643.4 595.4 637.8C586.8 633.7 577.6 630.5 570.6 624.1C563.6 617.7 559.5 606.8 564.2 598.5C566 595.3 569 592.8 570.7 589.6C574.1 583.4 572.7 575.5 568.9 569.5C568.2 568.5 567.4 567.4 566.4 566.1Z" fill="#0E538C"></path><path d="M852 851H349V892H852V851Z" fill="#CCE9FF"></path><path d="M576 746L638 790L714 947H700L615 808C615 808 586 809 576 800C566 791 508.5 752 508.5 752L576 746Z" fill="#0B4870"></path><path d="M466.3 733.4C455 764 463 807 501 809C539 811 551 809 551 809L625 959H642L584 791L513.5 752L466.3 733.4Z" fill="#0E538C"></path><path d="M524 559C534 572 558 608 567 648C576 688 601 746 601 746H572L544 651L518 562L524 559Z" fill="#4EA3FB"></path><path d="M554.8 505.9C556.3 530.4 545.6 547.2 530.3 548C515 548.8 505 526.6 509.6 505.9C520.3 487.5 534.9 486 534.9 486H544.1L554.8 505.9Z" fill="#FFE3CA"></path><path d="M544.6 491.3C541.8 499.9 535.6 507.3 527.6 511.5C519.6 515.7 510 516.7 501.3 514.1L523.1 483H541.8L559.7 497.2L557 513.5C550 508.2 544.6 491.3 544.6 491.3Z" fill="#0E538C"></path><path d="M525.7 545.1C522.5 557.5 523.5 570.5 523.5 572.5C520.5 576.5 506.5 575.5 504.5 561.5C507.5 543.5 513.5 523.5 513.5 523.5L518.5 534.5L525.7 545.1Z" fill="#FFE3CA"></path><path d="M506.5 550.9C494 555 452 574 450 578C453 589 468 752 468 752H536C536 752 527 662 532 656C537 650 553 629 551 626C549 623 523.6 558.5 523.6 558.5L506.5 550.9Z" fill="#2A94F4"></path><path d="M450 578C440.2 585.5 399 653 412 689C425 725 467.5 746.2 467.5 746.2V726.4C467.5 726.4 433 699 435 679C437 659 461 618 461 618L450 578Z" fill="#4EA3FB"></path><path d="M611.1 763.5H463.9C459.3 763.5 455.5 759.7 455.5 755.1L451.5 660.9C451.5 656.3 455.3 652.5 459.9 652.5H613.1C617.7 652.5 621.5 656.3 621.5 660.9L619.5 755.1C619.5 759.7 615.7 763.5 611.1 763.5Z" fill="#FFBE55"></path><path d="M639.6 959C649.5 961.2 662.9 972.1 669.3 977.7C670.6 978.8 669.8 981 668 981C657.7 980.8 634.4 979.7 629 975.1C622 969.1 624 959.1 624 959.1H639.6V959ZM713.8 946.6C722.6 949 734.2 959.2 740 964.7C741.3 965.9 740.3 968 738.6 967.9C728.9 967.2 708.1 965.3 703.4 960.8C697.2 955 699.5 945.9 699.5 945.9L713.8 946.6Z" fill="#1A87D8"></path><path d="M537 723C545.284 723 552 716.284 552 708C552 699.716 545.284 693 537 693C528.716 693 522 699.716 522 708C522 716.284 528.716 723 537 723Z" fill="white"></path><path d="M405 921L386 910L367 921V851H405V921Z" fill="#FFBE55"></path><path d="M699.6 506.5C699.6 508.4 698.9 510.1 697.7 511.5C698.9 512.8 699.6 514.6 699.6 516.5V522.7C699.6 524 699.2 525.3 698.6 526.4C699.2 527.5 699.6 528.8 699.6 530.1V536.3C699.6 540.4 696.3 543.7 692.2 543.7H627.8C623.7 543.7 620.4 540.4 620.4 536.3V530C620.4 528.7 620.8 527.4 621.4 526.3C620.8 525.2 620.4 523.9 620.4 522.6V516.4C620.4 514.5 621.1 512.8 622.3 511.4C621.1 510.1 620.4 508.3 620.4 506.4V500.2C620.4 496.1 623.7 492.8 627.8 492.8H692.2C696.3 492.8 699.6 496.1 699.6 500.2V506.5ZM751 366.3C751 402.4 730 433.5 699.6 448.3V481.9C699.6 484.4 697.5 486.5 695 486.5H625C622.5 486.5 620.4 484.4 620.4 481.9V448.3C590 433.6 569 402.4 569 366.3C569 316 609.7 275.3 660 275.3C710.3 275.3 751 316.1 751 366.3Z" fill="#FFBE55"></path><path opacity="0.23" d="M691 512H630" stroke="#7F7F7F" stroke-width="2" stroke-miterlimit="10" stroke-linecap="round"></path><path opacity="0.23" d="M691 526H630" stroke="#7F7F7F" stroke-width="2" stroke-miterlimit="10" stroke-linecap="round"></path><path d="M675.6 377.5C674.5 376.5 672.9 376 671.2 376.2C669.1 376.4 667.1 377.6 665.8 379.3C664.7 380.8 664.1 382.6 663.8 384.3C662.9 383.8 661.9 383.3 661 382.7L660.7 382.5H659.4L659.1 382.7C658.1 383.3 657.2 383.8 656.3 384.3C656 382.6 655.4 380.8 654.3 379.3C653.1 377.6 651 376.4 648.9 376.2C647.2 376 645.7 376.5 644.5 377.5C643 378.9 642.5 380.9 643 383C643.8 385.8 646.1 388.1 648.8 388.6C650.5 388.9 652.1 388.8 653.8 388.4C656.3 420.9 657.3 453.8 656.6 486.3H659.6C660.3 453.7 659.3 420.7 656.8 388.2C656.8 387.9 656.8 387.6 656.7 387.3C657.9 386.8 659 386.2 660.1 385.5C661.2 386.1 662.3 386.8 663.5 387.3C663.5 387.6 663.5 387.9 663.4 388.2C660.9 420.7 659.9 453.7 660.6 486.3H663.6C662.9 453.8 663.9 420.8 666.4 388.4C668 388.8 669.7 389 671.4 388.6C674 388.1 676.4 385.8 677.2 383C677.6 380.9 677.1 378.9 675.6 377.5ZM649.3 385.8C647.8 385.5 646.3 384 645.8 382.3C645.6 381.6 645.5 380.5 646.4 379.8C646.9 379.3 647.6 379.2 648.1 379.2C648.2 379.2 648.3 379.2 648.5 379.2C649.7 379.3 651 380 651.8 381.1C652.7 382.3 653.2 383.8 653.4 385.5C652 385.9 650.7 386 649.3 385.8ZM674.2 382.3C673.7 384 672.3 385.5 670.7 385.8C669.4 386.1 668 385.9 666.7 385.5C667 383.8 667.4 382.3 668.3 381.1C669 380.1 670.3 379.4 671.6 379.2C672.2 379.1 673 379.2 673.7 379.8C674.4 380.5 674.3 381.6 674.2 382.3Z" fill="white"></path><path d="M636 292C614 300 578 329 581 376" stroke="white" stroke-width="4" stroke-miterlimit="10" stroke-linecap="round"></path><path d="M515.5 455C529.583 455 541 443.583 541 429.5C541 415.417 529.583 404 515.5 404C501.417 404 490 415.417 490 429.5C490 443.583 501.417 455 515.5 455Z" fill="#FFBE55"></path><path d="M788.5 357C794.851 357 800 351.851 800 345.5C800 339.149 794.851 334 788.5 334C782.149 334 777 339.149 777 345.5C777 351.851 782.149 357 788.5 357Z" fill="#FFBE55"></path><path d="M751 545C761.493 545 770 536.493 770 526C770 515.507 761.493 507 751 507C740.507 507 732 515.507 732 526C732 536.493 740.507 545 751 545Z" fill="#FFBE55"></path><path d="M569 280C579.493 280 588 271.493 588 261C588 250.507 579.493 242 569 242C558.507 242 550 250.507 550 261C550 271.493 558.507 280 569 280Z" fill="#FFBE55"></path><path opacity="0.14" d="M405 921L386 910L367 921V851H405V921Z" fill="#0C0C0C"></path></svg>